<svg xmlns="http://www.w3.org/2000/svg" xmlns:xlink="http://www.w3.org/1999/xlink" width="50" zoomAndPan="magnify" viewBox="0 0 37.5 37.499999" height="50" preserveAspectRatio="xMidYMid meet" version="1.2"><defs><clipPath id="ccd979a977"><path d="M 0.554688 0 L 36.820312 0 L 36.820312 37.007812 L 0.554688 37.007812 Z M 0.554688 0 "/></clipPath></defs><g id="bd0df41f5d"><g clip-rule="nonzero" clip-path="url(#ccd979a977)"><path style=" stroke:none;fill-rule:nonzero;fill:#ffffff;fill-opacity:1;" d="M 35.710938 34.039062 L 26.84375 25.519531 C 29.480469 22.703125 30.921875 19.050781 30.921875 15.171875 C 30.921875 11.296875 29.34375 7.3125 26.476562 4.445312 C 23.609375 1.578125 19.800781 0 15.75 0 C 11.695312 0 7.886719 1.578125 5.019531 4.445312 C 2.152344 7.3125 0.574219 11.121094 0.574219 15.171875 C 0.574219 19.226562 2.152344 23.035156 5.019531 25.902344 C 7.886719 28.769531 11.695312 30.347656 15.75 30.347656 C 18.804688 30.347656 21.722656 29.449219 24.199219 27.777344 L 33.3125 36.53125 C 33.636719 36.84375 34.0625 37.015625 34.511719 37.015625 C 34.960938 37.015625 35.4375 36.820312 35.761719 36.484375 C 36.421875 35.792969 36.398438 34.695312 35.710938 34.035156 Z M 22.414062 25.132812 C 20.507812 26.410156 18.21875 27.160156 15.75 27.160156 C 9.128906 27.160156 3.765625 21.792969 3.765625 15.175781 C 3.765625 8.558594 9.128906 3.191406 15.75 3.191406 C 22.367188 3.191406 27.730469 8.554688 27.730469 15.171875 C 27.730469 18.453125 26.410156 21.425781 24.273438 23.59375 C 23.710938 24.164062 23.085938 24.683594 22.414062 25.132812 Z M 22.414062 25.132812 "/></g></g></svg>