<svg xmlns="http://www.w3.org/2000/svg" xmlns:xlink="http://www.w3.org/1999/xlink" width="50" zoomAndPan="magnify" viewBox="0 0 37.5 37.499999" height="50" preserveAspectRatio="xMidYMid meet" version="1.2"><defs><clipPath id="07ce9e2821"><path d="M 0.519531 1.035156 L 36.785156 1.035156 L 36.785156 37 L 0.519531 37 Z M 0.519531 1.035156 "/></clipPath></defs><g id="1bfb2181a5"><g clip-rule="nonzero" clip-path="url(#07ce9e2821)"><path style=" stroke:none;fill-rule:nonzero;fill:#44bf83;fill-opacity:1;" d="M 18.5 1.035156 C 8.570312 1.035156 0.519531 9.085938 0.519531 19.019531 C 0.519531 28.949219 8.570312 37 18.5 37 C 28.433594 37 36.484375 28.949219 36.484375 19.019531 C 36.484375 9.085938 28.433594 1.035156 18.5 1.035156 Z M 18.5 35.640625 C 9.320312 35.640625 1.878906 28.199219 1.878906 19.019531 C 1.878906 9.839844 9.320312 2.398438 18.5 2.398438 C 27.679688 2.398438 35.121094 9.839844 35.121094 19.019531 C 35.121094 28.199219 27.679688 35.640625 18.5 35.640625 Z M 18.5 35.640625 "/></g><path style=" stroke:none;fill-rule:nonzero;fill:#44bf83;fill-opacity:1;" d="M 16.390625 27.832031 C 15.9375 27.878906 15.578125 27.925781 15.21875 27.945312 C 13.164062 28.039062 11.644531 27.230469 10.726562 25.34375 C 10.433594 24.746094 10.054688 24.179688 9.664062 23.632812 C 9.429688 23.308594 9.101562 23.042969 8.796875 22.773438 L 8.792969 22.769531 C 8.605469 22.601562 8.6875 22.292969 8.933594 22.253906 C 9.226562 22.203125 9.496094 22.257812 9.757812 22.324219 C 10.582031 22.53125 11.113281 23.117188 11.535156 23.816406 C 12.488281 25.398438 14.132812 26.058594 15.910156 25.589844 C 16.210938 25.507812 16.34375 25.378906 16.410156 25.050781 C 16.488281 24.664062 16.589844 24.289062 16.703125 23.902344 C 16.734375 23.785156 16.746094 23.671875 16.730469 23.550781 C 16.714844 23.433594 16.679688 23.320312 16.617188 23.21875 C 16.558594 23.117188 16.480469 23.027344 16.382812 22.957031 C 16.289062 22.886719 16.179688 22.835938 16.066406 22.808594 L 16.054688 22.808594 C 14.210938 22.367188 12.617188 21.542969 11.59375 19.859375 C 11.042969 18.960938 10.773438 17.964844 10.785156 16.933594 C 10.800781 15.757812 10.90625 14.582031 11.039062 13.417969 C 11.136719 12.597656 11.515625 11.867188 12.105469 11.277344 C 12.3125 11.074219 12.328125 10.898438 12.230469 10.632812 C 11.824219 9.542969 11.894531 8.449219 12.253906 7.355469 C 12.355469 7.046875 12.5 7 12.796875 7.09375 C 13.710938 7.382812 14.390625 7.976562 14.992188 8.6875 L 14.996094 8.695312 C 15.152344 8.878906 15.34375 9.007812 15.574219 9.074219 C 15.804688 9.140625 16.035156 9.136719 16.265625 9.0625 C 18.160156 8.441406 21.035156 8.433594 22.824219 9.046875 C 23.054688 9.125 23.285156 9.132812 23.519531 9.066406 C 23.753906 9 23.949219 8.875 24.105469 8.6875 L 24.109375 8.679688 C 24.710938 7.96875 25.394531 7.378906 26.308594 7.089844 C 26.613281 6.996094 26.746094 7.066406 26.839844 7.367188 C 27.199219 8.460938 27.257812 9.546875 26.875 10.648438 C 26.820312 10.804688 26.820312 11.074219 26.917969 11.171875 C 27.738281 12.003906 28.09375 13.035156 28.1875 14.152344 C 28.273438 15.230469 28.367188 16.328125 28.269531 17.398438 C 28.007812 20.183594 26.3125 21.808594 23.738281 22.613281 C 23.515625 22.683594 23.292969 22.742188 23.0625 22.796875 C 22.945312 22.824219 22.835938 22.875 22.738281 22.949219 C 22.636719 23.023438 22.558594 23.117188 22.5 23.226562 C 22.441406 23.332031 22.40625 23.449219 22.394531 23.570312 C 22.382812 23.695312 22.398438 23.816406 22.441406 23.933594 C 22.792969 24.949219 22.738281 26.035156 22.730469 27.113281 C 22.730469 27.363281 22.730469 27.609375 22.730469 27.859375 C 22.730469 28.273438 22.648438 28.671875 22.488281 29.058594 C 22.328125 29.441406 22.101562 29.777344 21.808594 30.070312 C 21.515625 30.363281 21.175781 30.589844 20.792969 30.75 C 20.410156 30.90625 20.011719 30.988281 19.59375 30.988281 L 19.523438 30.988281 C 19.109375 30.988281 18.710938 30.90625 18.324219 30.75 C 17.941406 30.589844 17.601562 30.363281 17.308594 30.070312 C 17.015625 29.773438 16.789062 29.4375 16.628906 29.050781 C 16.46875 28.667969 16.390625 28.269531 16.390625 27.851562 Z M 16.390625 27.832031 "/></g></svg>